# xmcd CD database file generated by OrangeCD 6.2
#
# Track frame offsets:
#	150
#	22505
#	40284
#	54907
#	77956
#	101374
#	119400
#	143065
#	162737
#	182109
#	197058
#
# Disc length: 3031 seconds
#
# Revision: 0
# Processed by: cddbd v1.5.2PL0 Copyright (c) Steve Scherf et al.
# Submitted via: OrangeCD 6.2
#
DISCID=8c0bd50b
DTITLE=CS Nielsen - Against The Dying Of The Light
DYEAR=1900
DGENRE=
TTITLE0=Rage
TTITLE1=Black Spots
TTITLE2=I Can See It In Your Eyes
TTITLE3=Trouble The Water
TTITLE4=Ask The Dust
TTITLE5=Happy
TTITLE6=Here's Lost John
TTITLE7=Bound To Move On
TTITLE8=Bottle For The Road
TTITLE9=One More Shot
TTITLE10=New Song
EXTD=
EXTT0=
EXTT1=
EXTT2=
EXTT3=
EXTT4=
EXTT5=
EXTT6=
EXTT7=
EXTT8=
EXTT9=
EXTT10=
PLAYORDER=
